<?xml version="1.0" encoding="UTF-8" standalone="no"?>
<!-- Created with Inkscape (http://www.inkscape.org/) -->

<svg
   xmlns:osb="http://www.openswatchbook.org/uri/2009/osb"
   xmlns:dc="http://purl.org/dc/elements/1.1/"
   xmlns:cc="http://creativecommons.org/ns#"
   xmlns:rdf="http://www.w3.org/1999/02/22-rdf-syntax-ns#"
   xmlns:svg="http://www.w3.org/2000/svg"
   xmlns="http://www.w3.org/2000/svg"
   xmlns:xlink="http://www.w3.org/1999/xlink"
   xmlns:sodipodi="http://sodipodi.sourceforge.net/DTD/sodipodi-0.dtd"
   xmlns:inkscape="http://www.inkscape.org/namespaces/inkscape"
   inkscape:export-ydpi="90"
   inkscape:export-xdpi="90"
   inkscape:export-filename="/home/chofer-local/repositories/documentsrepository/presentations/MultimediaTechonogienWS16/pics/Scenario1-1.png"
   sodipodi:docname="Scenario1-1.svg"
   inkscape:version="0.48.4 r9939"
   version="1.1"
   id="svg2"
   height="600"
   width="800">
  <sodipodi:namedview
     id="base"
     pagecolor="#ffffff"
     bordercolor="#666666"
     borderopacity="1.0"
     inkscape:pageopacity="0"
     inkscape:pageshadow="2"
     inkscape:zoom="0.98994949"
     inkscape:cx="343.93114"
     inkscape:cy="297.91271"
     inkscape:document-units="px"
     inkscape:current-layer="layer1"
     showgrid="false"
     width="800px"
     inkscape:window-width="2491"
     inkscape:window-height="1416"
     inkscape:window-x="69"
     inkscape:window-y="24"
     inkscape:window-maximized="1" />
  <defs
     id="defs4">
    <marker
       style="overflow:visible"
       id="TriangleOutM"
       refX="0.0"
       refY="0.0"
       orient="auto"
       inkscape:stockid="TriangleOutM">
      <path
         transform="scale(0.4)"
         style="fill-rule:evenodd;stroke:#000000;stroke-width:1.0pt"
         d="M 5.77,0.0 L -2.88,5.0 L -2.88,-5.0 L 5.77,0.0 z "
         id="path5634" />
    </marker>
    <marker
       style="overflow:visible;"
       id="Arrow1Send"
       refX="0.0"
       refY="0.0"
       orient="auto"
       inkscape:stockid="Arrow1Send">
      <path
         transform="scale(0.2) rotate(180) translate(6,0)"
         style="fill-rule:evenodd;stroke:#000000;stroke-width:1.0pt;"
         d="M 0.0,0.0 L 5.0,-5.0 L -12.5,0.0 L 5.0,5.0 L 0.0,0.0 z "
         id="path5504" />
    </marker>
    <marker
       style="overflow:visible;"
       id="Arrow2Send"
       refX="0.0"
       refY="0.0"
       orient="auto"
       inkscape:stockid="Arrow2Send">
      <path
         transform="scale(0.3) rotate(180) translate(-2.3,0)"
         d="M 8.7185878,4.0337352 L -2.2072895,0.016013256 L 8.7185884,-4.0017078 C 6.9730900,-1.6296469 6.9831476,1.6157441 8.7185878,4.0337352 z "
         style="fill-rule:evenodd;stroke-width:0.62500000;stroke-linejoin:round;"
         id="path5522" />
    </marker>
    <marker
       style="overflow:visible"
       id="Club"
       refX="0.0"
       refY="0.0"
       orient="auto"
       inkscape:stockid="Club">
      <path
         transform="scale(0.6)"
         style="fill-rule:evenodd;stroke:#000000;stroke-width:0.74587913pt"
         d="M -1.5971367,-7.0977635 C -3.4863874,-7.0977635 -5.0235187,-5.5606321 -5.0235187,-3.6713813 C -5.0235187,-3.0147015 -4.7851656,-2.4444556 -4.4641095,-1.9232271 C -4.5028609,-1.8911157 -4.5437814,-1.8647646 -4.5806531,-1.8299921 C -5.2030765,-2.6849849 -6.1700514,-3.2751330 -7.3077730,-3.2751330 C -9.1970245,-3.2751331 -10.734155,-1.7380016 -10.734155,0.15124914 C -10.734155,2.0404999 -9.1970245,3.5776313 -7.3077730,3.5776313 C -6.3143268,3.5776313 -5.4391540,3.1355702 -4.8137404,2.4588126 C -4.9384274,2.8137041 -5.0235187,3.1803000 -5.0235187,3.5776313 C -5.0235187,5.4668819 -3.4863874,7.0040135 -1.5971367,7.0040135 C 0.29211394,7.0040135 1.8292454,5.4668819 1.8292454,3.5776313 C 1.8292454,2.7842354 1.5136868,2.0838028 1.0600576,1.5031550 C 2.4152718,1.7663868 3.7718375,2.2973711 4.7661444,3.8340272 C 4.0279463,3.0958289 3.5540908,1.7534117 3.5540908,-0.058529361 L 2.9247554,-0.10514681 L 3.5074733,-0.12845553 C 3.5074733,-1.9403966 3.9580199,-3.2828138 4.6962183,-4.0210121 C 3.7371277,-2.5387813 2.4390549,-1.9946496 1.1299838,-1.7134486 C 1.5341802,-2.2753578 1.8292454,-2.9268556 1.8292454,-3.6713813 C 1.8292454,-5.5606319 0.29211394,-7.0977635 -1.5971367,-7.0977635 z "
         id="path5718" />
    </marker>
    <marker
       style="overflow:visible"
       id="DotM"
       refX="0.0"
       refY="0.0"
       orient="auto"
       inkscape:stockid="DotM">
      <path
         transform="scale(0.4) translate(7.4, 1)"
         style="fill-rule:evenodd;stroke:#000000;stroke-width:1.0pt"
         d="M -2.5,-1.0 C -2.5,1.7600000 -4.7400000,4.0 -7.5,4.0 C -10.260000,4.0 -12.5,1.7600000 -12.5,-1.0 C -12.5,-3.7600000 -10.260000,-6.0 -7.5,-6.0 C -4.7400000,-6.0 -2.5,-3.7600000 -2.5,-1.0 z "
         id="path5553" />
    </marker>
    <marker
       style="overflow:visible"
       id="TriangleOutL"
       refX="0.0"
       refY="0.0"
       orient="auto"
       inkscape:stockid="TriangleOutL">
      <path
         transform="scale(0.8)"
         style="fill-rule:evenodd;stroke:#000000;stroke-width:1.0pt"
         d="M 5.77,0.0 L -2.88,5.0 L -2.88,-5.0 L 5.77,0.0 z "
         id="path5631" />
    </marker>
    <marker
       style="overflow:visible;"
       id="Arrow2Lend"
       refX="0.0"
       refY="0.0"
       orient="auto"
       inkscape:stockid="Arrow2Lend">
      <path
         transform="scale(1.1) rotate(180) translate(1,0)"
         d="M 8.7185878,4.0337352 L -2.2072895,0.016013256 L 8.7185884,-4.0017078 C 6.9730900,-1.6296469 6.9831476,1.6157441 8.7185878,4.0337352 z "
         style="fill-rule:evenodd;stroke-width:0.62500000;stroke-linejoin:round;"
         id="path5510" />
    </marker>
    <marker
       style="overflow:visible;"
       id="Arrow1Lend"
       refX="0.0"
       refY="0.0"
       orient="auto"
       inkscape:stockid="Arrow1Lend">
      <path
         transform="scale(0.8) rotate(180) translate(12.5,0)"
         style="fill-rule:evenodd;stroke:#000000;stroke-width:1.0pt;"
         d="M 0.0,0.0 L 5.0,-5.0 L -12.5,0.0 L 5.0,5.0 L 0.0,0.0 z "
         id="path5492" />
    </marker>
    <linearGradient
       gradientTransform="translate(0,536.62513)"
       osb:paint="solid"
       id="linearGradient5465">
      <stop
         id="stop5467"
         offset="0"
         style="stop-color:#008147;stop-opacity:1;" />
    </linearGradient>
    <linearGradient
       id="linearGradient5459">
      <stop
         id="stop5461"
         offset="0"
         style="stop-color:#dd0000;stop-opacity:1;" />
    </linearGradient>
    <linearGradient
       osb:paint="solid"
       id="linearGradient5453">
      <stop
         id="stop5455"
         offset="0"
         style="stop-color:#814700;stop-opacity:1;" />
    </linearGradient>
    <linearGradient
       gradientTransform="translate(0,895.94004)"
       osb:paint="solid"
       id="linearGradient5299">
      <stop
         id="stop5301"
         offset="0"
         style="stop-color:#000000;stop-opacity:1;" />
    </linearGradient>
    <linearGradient
       osb:paint="gradient"
       id="linearGradient5251">
      <stop
         id="stop5253"
         offset="0"
         style="stop-color:#920000;stop-opacity:1;" />
      <stop
         id="stop5255"
         offset="1"
         style="stop-color:#920000;stop-opacity:0;" />
    </linearGradient>
    <linearGradient
       id="linearGradient5245">
      <stop
         id="stop5247"
         offset="0"
         style="stop-color:#920000;stop-opacity:1;" />
    </linearGradient>
    <linearGradient
       osb:paint="solid"
       id="linearGradient5237">
      <stop
         id="stop5239"
         offset="0"
         style="stop-color:#920000;stop-opacity:1;" />
    </linearGradient>
    <linearGradient
       id="linearGradient3787">
      <stop
         id="stop3789"
         offset="0"
         style="stop-color:#118e00;stop-opacity:1;" />
    </linearGradient>
    <filter
       id="filter5439"
       inkscape:collect="always">
      <feGaussianBlur
         id="feGaussianBlur5441"
         stdDeviation="2.9193409"
         inkscape:collect="always" />
    </filter>
    <filter
       id="filter7815"
       inkscape:collect="always">
      <feGaussianBlur
         id="feGaussianBlur7817"
         stdDeviation="3.7884834"
         inkscape:collect="always" />
    </filter>
    <filter
       id="filter7819"
       inkscape:collect="always">
      <feGaussianBlur
         id="feGaussianBlur7821"
         stdDeviation="3.7675531"
         inkscape:collect="always" />
    </filter>
    <linearGradient
       y2="477.15637"
       x2="609.77938"
       y1="477.15637"
       x1="457.96684"
       gradientTransform="scale(1.1418951,0.8757372)"
       gradientUnits="userSpaceOnUse"
       id="linearGradient3689"
       xlink:href="#linearGradient5465"
       inkscape:collect="always" />
  </defs>
  <metadata
     id="metadata7">
    <rdf:RDF>
      <cc:Work
         rdf:about="">
        <dc:format>image/svg+xml</dc:format>
        <dc:type
           rdf:resource="http://purl.org/dc/dcmitype/StillImage" />
        <dc:title></dc:title>
      </cc:Work>
    </rdf:RDF>
  </metadata>
  <g
     transform="translate(0,-452.36224)"
     id="layer1"
     inkscape:groupmode="layer"
     inkscape:label="Layer 1">
    <flowRoot
       style="fill:black;stroke:none;stroke-opacity:1;stroke-width:1px;stroke-linejoin:miter;stroke-linecap:butt;fill-opacity:1;font-family:Sans;font-style:normal;font-weight:normal;font-size:40px;line-height:125%;letter-spacing:0px;word-spacing:0px"
       id="flowRoot7669"
       xml:space="preserve"><flowRegion
         id="flowRegion7671"><rect
           y="100.98464"
           x="157.5838"
           height="63.63961"
           width="23.233509"
           id="rect7673" /></flowRegion><flowPara
         id="flowPara7675" /></flowRoot>    <rect
       transform="matrix(0.99301141,0,0,1.0182579,9.3195514,-38.817156)"
       y="581.04126"
       x="37.375645"
       height="371.73615"
       width="212.13203"
       id="rect5401"
       style="fill:url(#linearGradient5465);fill-opacity:1;stroke:#000000;stroke-width:5.4000001;stroke-linecap:butt;stroke-miterlimit:4;stroke-opacity:1;stroke-dasharray:none;filter:url(#filter5439)" />
    <path
       transform="matrix(1.0777788,0,0,1.0176466,-66.292841,421.41787)"
       d="m 750.54337,231.79939 c 0,96.79423 -54.04516,175.26146 -120.71323,175.26146 -66.66807,0 -120.71323,-78.46723 -120.71323,-175.26146 0,-96.79423 54.04516,-175.261457 120.71323,-175.261457 66.66807,0 120.71323,78.467227 120.71323,175.261457 z"
       sodipodi:ry="175.26146"
       sodipodi:rx="120.71323"
       sodipodi:cy="231.79939"
       sodipodi:cx="629.83014"
       id="path3785"
       style="fill:url(#linearGradient5453);fill-opacity:1;stroke:#000000;stroke-width:5.4000001;stroke-miterlimit:4;stroke-opacity:1;stroke-dasharray:none;filter:url(#filter7819)"
       sodipodi:type="arc" />
    <path
       transform="matrix(2.0065453,0,0,1.0887615,-607.18412,416.94788)"
       d="m 689.9342,484.33752 c 0,33.19457 -35.95472,60.10408 -80.30712,60.10408 -44.35241,0 -80.30713,-26.90951 -80.30713,-60.10408 0,-33.19456 35.95472,-60.10407 80.30713,-60.10407 44.3524,0 80.30712,26.90951 80.30712,60.10407 z"
       sodipodi:ry="60.104076"
       sodipodi:rx="80.307129"
       sodipodi:cy="484.33752"
       sodipodi:cx="609.62708"
       id="path7739"
       style="fill:url(#linearGradient3689);fill-opacity:1;stroke:url(#linearGradient5299);stroke-width:6;stroke-linecap:square;stroke-miterlimit:4;stroke-opacity:1;stroke-dasharray:none;filter:url(#filter7815)"
       sodipodi:type="arc" />
    <path
       sodipodi:nodetypes="cc"
       transform="translate(0,452.36224)"
       inkscape:connector-curvature="0"
       id="path8510"
       d="M 635.38595,229.27401 C 509.49569,381.06573 411.21537,293.94128 282.84271,291.90348"
       style="fill:none;stroke:#000000;stroke-width:6.19999981;stroke-linecap:butt;stroke-linejoin:miter;stroke-miterlimit:4;stroke-opacity:1;stroke-dasharray:none;marker-end:url(#TriangleOutM)" />
    <flowRoot
       style="fill:black;stroke:none;stroke-opacity:1;stroke-width:1px;stroke-linejoin:miter;stroke-linecap:butt;fill-opacity:1;font-family:Sans;font-style:normal;font-weight:normal;font-size:40px;line-height:125%;letter-spacing:0px;word-spacing:0px"
       id="flowRoot10451"
       xml:space="preserve"><flowRegion
         id="flowRegion10453"><rect
           y="332.30957"
           x="401.03055"
           height="67.680222"
           width="81.822357"
           id="rect10455" /></flowRegion><flowPara
         id="flowPara10457" /></flowRoot>    <flowRoot
       xml:space="preserve"
       id="flowRoot3217"
       style="fill:black;stroke:none;stroke-opacity:1;stroke-width:1px;stroke-linejoin:miter;stroke-linecap:butt;fill-opacity:1;font-family:Sans;font-style:normal;font-weight:normal;font-size:40px;line-height:125%;letter-spacing:0px;word-spacing:0px"><flowRegion
         id="flowRegion3219"><rect
           id="rect3221"
           width="110.10663"
           height="84.852814"
           x="234.35539"
           y="-238.42662" /></flowRegion><flowPara
         id="flowPara3223" /></flowRoot>    <flowRoot
       xml:space="preserve"
       id="flowRoot3225"
       style="fill:black;stroke:none;stroke-opacity:1;stroke-width:1px;stroke-linejoin:miter;stroke-linecap:butt;fill-opacity:1;font-family:Sans;font-style:normal;font-weight:normal;font-size:40px;line-height:125%;letter-spacing:0px;word-spacing:0px"><flowRegion
         id="flowRegion3227"><rect
           id="rect3229"
           width="96.974648"
           height="91.923882"
           x="180.81731"
           y="-210.14235" /></flowRegion><flowPara
         id="flowPara3231" /></flowRoot>    <flowRoot
       xml:space="preserve"
       id="flowRoot3233"
       style="fill:black;stroke:none;stroke-opacity:1;stroke-width:1px;stroke-linejoin:miter;stroke-linecap:butt;fill-opacity:1;font-family:Sans;font-style:normal;font-weight:normal;font-size:40px;line-height:125%;letter-spacing:0px;word-spacing:0px"><flowRegion
         id="flowRegion3235"><rect
           id="rect3237"
           width="116.16754"
           height="91.923882"
           x="211.12189"
           y="-240.44691" /></flowRegion><flowPara
         id="flowPara3239" /></flowRoot>    <g
       transform="matrix(1.4841596,0,0,1.4841596,-255.01335,387.70246)"
       id="g3323">
      <g
         style="font-style:normal;font-variant:normal;font-weight:normal;font-stretch:normal;letter-spacing:normal;word-spacing:normal;text-anchor:start;fill:none;stroke:#000000;stroke-linecap:butt;stroke-linejoin:miter;stroke-miterlimit:10.43299961;stroke-opacity:1;stroke-dasharray:none;stroke-dashoffset:0"
         id="content"
         transform="matrix(0.85714286,0,0,-0.85714286,-150,600)"
         xml:space="preserve"
         stroke-miterlimit="10.433"
         font-style="normal"
         font-variant="normal"
         font-weight="normal"
         font-stretch="normal"
         font-size-adjust="none"
         letter-spacing="normal"
         word-spacing="normal"><path
           style="fill:#000000;stroke-width:0"
           inkscape:connector-curvature="0"
           d="m 470.32,433.61 h 5.37 c 0.75,0 2.05,0 2.05,1.48 0,1.55 -1.3,1.55 -2.05,1.55 H 461.5 c -0.75,0 -2.04,0 -2.04,-1.49 0,-1.54 1.29,-1.54 2.04,-1.54 h 5.38 v -24.36 h -5.38 c -0.75,0 -2.04,0 -2.04,-1.5 0,-1.55 1.29,-1.55 2.04,-1.55 h 14.19 c 0.75,0 2.05,0 2.05,1.5 0,1.55 -1.3,1.55 -2.05,1.55 h -5.37 z"
           id="path3326" /><path
           style="fill:#000000;stroke-width:0"
           inkscape:connector-curvature="0"
           d="m 496.18,422.43 5.62,11.18 h 1.09 c 0.75,0 2.05,0 2.05,1.48 0,1.55 -1.3,1.55 -2.05,1.55 h -5.17 c -0.75,0 -2,0 -2,-1.49 0,-1.54 1.16,-1.54 2.3,-1.54 l -3.55,-7.29 -3.83,7.29 c 1,0 2.15,0 2.15,1.54 0,1.49 -1.25,1.49 -1.99,1.49 h -5.19 c -0.75,0 -2.04,0 -2.04,-1.49 0,-1.54 1.29,-1.54 2.04,-1.54 h 1.14 l 5.99,-11.22 -6.63,-13.14 h -1.09 c -0.8,0 -2,0 -2,-1.55 0,-1.5 1.25,-1.5 2,-1.5 h 5.17 c 0.75,0 2.05,0 2.05,1.5 0,1.55 -1.2,1.55 -2.35,1.55 l 4.58,9.65 4.94,-9.65 c -1.14,0 -2.23,0 -2.23,-1.55 0,-1.5 1.23,-1.5 1.98,-1.5 h 5.19 c 0.75,0 2.04,0 2.04,1.5 0,1.55 -1.29,1.55 -2.04,1.55 h -1.16 z"
           id="path3328" /><path
           style="fill:#000000;stroke-width:0"
           inkscape:connector-curvature="0"
           d="M 522.63,433.61 H 528 c 0.75,0 2.05,0 2.05,1.48 0,1.55 -1.3,1.55 -2.05,1.55 h -14.18 c -0.75,0 -2.05,0 -2.05,-1.49 0,-1.54 1.3,-1.54 2.05,-1.54 h 5.37 v -24.36 h -5.37 c -0.75,0 -2.05,0 -2.05,-1.5 0,-1.55 1.3,-1.55 2.05,-1.55 H 528 c 0.75,0 2.05,0 2.05,1.5 0,1.55 -1.3,1.55 -2.05,1.55 h -5.37 z"
           id="path3330" /></g>    </g>
    <g
       id="g3777"
       transform="translate(248.49753,702.05602)">
      <g
         word-spacing="normal"
         letter-spacing="normal"
         font-size-adjust="none"
         font-stretch="normal"
         font-weight="normal"
         font-variant="normal"
         font-style="normal"
         stroke-miterlimit="10.433"
         xml:space="preserve"
         transform="matrix(0.85714286,0,0,-0.85714286,-150,600)"
         id="g3779"
         style="font-style:normal;font-variant:normal;font-weight:normal;font-stretch:normal;letter-spacing:normal;word-spacing:normal;text-anchor:start;fill:none;stroke:#000000;stroke-linecap:butt;stroke-linejoin:miter;stroke-miterlimit:10.43299961;stroke-opacity:1;stroke-dasharray:none;stroke-dashoffset:0"><path
           id="path3781"
           d="m 471.27,435.29 -0.02,0.09 -0.02,0.08 -0.03,0.09 -0.02,0.08 -0.02,0.07 -0.02,0.08 -0.03,0.07 -0.02,0.07 -0.05,0.13 -0.06,0.12 -0.05,0.12 -0.06,0.1 -0.06,0.1 -0.06,0.09 -0.06,0.08 -0.07,0.08 -0.07,0.06 -0.07,0.07 -0.07,0.05 -0.08,0.05 -0.08,0.04 -0.09,0.04 -0.09,0.04 -0.09,0.03 -0.09,0.02 -0.1,0.02 -0.11,0.02 -0.1,0.01 -0.11,0.01 -0.12,0.01 -0.12,0.01 -0.12,0 -0.13,0.01 -0.13,0 -0.14,0 -0.14,0 c -1.44,0 -2.24,0 -2.69,-1.89 l -6.03,-26.09 c -0.69,0 -1.85,0 -2.14,-0.11 -0.55,-0.3 -0.85,-0.8 -0.85,-1.44 0,-1.5 1.3,-1.5 2.14,-1.5 h 5.08 c 0.91,0 2.1,0 2.1,1.5 0,1.55 -0.99,1.55 -2.79,1.55 l 1.15,5.17 0.75,3.04 3.28,15.74 h 0.06 l 3.23,-15.74 h -6.57 l -0.75,-3.04 h 8.07 l 1.14,-5.17 c -1.79,0 -2.79,0 -2.79,-1.55 0,-1.5 1.2,-1.5 2.09,-1.5 h 5.09 c 0.85,0 2.15,0 2.15,1.5 0,0.64 -0.25,1.14 -0.85,1.39 -0.31,0.16 -1.4,0.16 -2.15,0.16 z"
           inkscape:connector-curvature="0"
           style="fill:#000000;stroke-width:0" /><path
           id="path3783"
           d="m 484.66,436.64 -0.08,0 -0.07,0 -0.08,0 -0.09,-0.01 -0.16,0 -0.09,-0.01 -0.08,-0.01 -0.09,-0.01 -0.08,-0.01 -0.09,-0.02 -0.08,-0.01 -0.09,-0.03 -0.08,-0.02 -0.08,-0.03 -0.07,-0.04 -0.08,-0.03 -0.07,-0.05 -0.07,-0.05 -0.07,-0.05 -0.06,-0.06 -0.06,-0.07 -0.03,-0.03 -0.03,-0.04 -0.02,-0.04 -0.03,-0.04 -0.02,-0.04 -0.02,-0.04 -0.02,-0.05 -0.02,-0.04 -0.02,-0.05 -0.02,-0.05 -0.01,-0.05 -0.02,-0.06 -0.01,-0.06 -0.01,-0.05 -0.01,-0.07 -0.01,-0.06 0,-0.06 -0.01,-0.07 0,-0.07 0,-0.07 c 0,-1.48 1.28,-1.48 2.03,-1.48 h 1.09 v -24.36 h -1.09 c -0.8,0 -2.03,0 -2.03,-1.55 0,-1.5 1.28,-1.5 2.03,-1.5 h 10.27 c 6.53,0 10.9,6.97 10.9,15 0,7.97 -4.28,15.44 -10.9,15.44 l -0.94,-3.03 c 5.62,0 8.4,-6.63 8.4,-12.41 0,-5.83 -2.87,-11.95 -8.4,-11.95 h -4.8 v 24.36 h 4.8 l 0.94,3.03 z"
           inkscape:connector-curvature="0"
           style="fill:#000000;stroke-width:0" /><path
           id="path3786"
           d="m 517.3,434.84 -0.06,0.15 -0.05,0.14 -0.06,0.14 -0.06,0.12 -0.06,0.12 -0.06,0.11 -0.07,0.1 -0.06,0.1 -0.07,0.09 -0.06,0.08 -0.07,0.08 -0.08,0.07 -0.07,0.06 -0.07,0.06 -0.08,0.05 -0.08,0.05 -0.08,0.04 -0.09,0.04 -0.08,0.04 -0.09,0.03 -0.09,0.02 -0.1,0.02 -0.09,0.02 -0.1,0.02 -0.11,0.01 -0.1,0.01 -0.11,0.01 -0.11,0.01 -0.11,0 -0.12,0.01 -0.12,0 -0.13,0 h -3.39 c -0.75,0 -2,0 -2,-1.49 0,-1.54 1.21,-1.54 2,-1.54 h 1.25 v -24.36 h -1.25 c -0.75,0 -2,0 -2,-1.5 0,-1.55 1.21,-1.55 2,-1.55 h 5.28 c 0.75,0 1.99,0 1.99,1.5 0,1.55 -1.19,1.55 -1.99,1.55 h -1.25 v 23.65 h 0.05 l 9.17,-24.9 c 0.64,-1.75 1.44,-1.8 2.74,-1.8 1.5,0 2.09,0.16 2.09,2.05 v 25.36 h 1.25 c 0.75,0 2,0 2,1.48 0,1.55 -1.2,1.55 -2,1.55 h -5.28 c -0.8,0 -2,0 -2,-1.55 0,-1.48 1.25,-1.48 2,-1.48 h 1.25 v -23.68 h -0.05 z"
           inkscape:connector-curvature="0"
           style="fill:#000000;stroke-width:0" /><path
           id="path3788"
           d="m 548.78,433.61 h 5.38 c 0.75,0 2.05,0 2.05,1.48 0,1.55 -1.3,1.55 -2.05,1.55 h -14.19 c -0.75,0 -2.04,0 -2.04,-1.49 0,-1.54 1.29,-1.54 2.04,-1.54 h 5.38 v -24.36 h -5.38 c -0.75,0 -2.04,0 -2.04,-1.5 0,-1.55 1.29,-1.55 2.04,-1.55 h 14.19 c 0.75,0 2.05,0 2.05,1.5 0,1.55 -1.3,1.55 -2.05,1.55 h -5.38 z"
           inkscape:connector-curvature="0"
           style="fill:#000000;stroke-width:0" /><path
           id="path3790"
           d="m 581.11,419.7 0.06,0 0.07,0 0.07,0 0.08,0 0.08,0.01 0.09,0 0.08,0.01 0.1,0.01 0.09,0.01 0.1,0.01 0.09,0.02 0.1,0.02 0.1,0.03 0.1,0.03 0.1,0.03 0.09,0.04 0.1,0.04 0.09,0.05 0.09,0.06 0.09,0.06 0.08,0.06 0.08,0.08 0.03,0.04 0.04,0.04 0.03,0.04 0.04,0.05 0.03,0.04 0.03,0.05 0.03,0.05 0.02,0.06 0.03,0.05 0.02,0.06 0.02,0.06 0.02,0.06 0.02,0.07 0.01,0.06 0.02,0.07 0.01,0.07 0.01,0.07 0,0.08 0.01,0.08 0,0.08 c 0,1.73 -1.74,1.73 -2.35,1.73 h -15.84 c -0.59,0 -2.33,0 -2.33,-1.73 0,-1.75 1.74,-1.75 2.33,-1.75 z"
           inkscape:connector-curvature="0"
           style="fill:#000000;stroke-width:0" /><path
           id="path3792"
           d="m 610.41,435.15 0,0.08 0,0.08 0,0.08 0,0.08 -0.01,0.17 -0.01,0.08 0,0.09 -0.01,0.08 -0.02,0.09 -0.01,0.08 -0.02,0.09 -0.02,0.08 -0.02,0.08 -0.03,0.08 -0.04,0.08 -0.03,0.07 -0.04,0.07 -0.05,0.07 -0.05,0.07 -0.06,0.06 -0.06,0.06 -0.04,0.03 -0.03,0.03 -0.04,0.02 -0.04,0.03 -0.04,0.02 -0.04,0.02 -0.04,0.03 -0.05,0.01 -0.04,0.02 -0.05,0.02 -0.05,0.02 -0.05,0.01 -0.06,0.01 -0.05,0.01 -0.06,0.01 -0.06,0.01 -0.06,0.01 -0.07,0 -0.07,0 -0.06,0 c -0.91,0 -1.16,-0.5 -1.41,-0.84 -0.09,-0.2 -0.09,-0.3 -0.74,-1.55 -1.65,1.41 -3.93,2.39 -6.48,2.39 -6.42,0 -12,-6.67 -12,-15.73 0,-9.13 5.58,-15.8 12.05,-15.8 5.78,0 10.06,4.44 10.06,8.92 0,1.64 -1.19,1.64 -1.73,1.64 -0.46,0 -1.6,0 -1.71,-1.45 -0.34,-4.87 -4.37,-6.08 -6.42,-6.08 -4.53,0 -8.81,5.28 -8.81,12.77 0,7.42 4.33,12.7 8.76,12.7 2.99,0 5.72,-2.29 6.43,-6.33 0.15,-0.84 0.25,-1.64 1.75,-1.64 1.73,0 1.73,1.05 1.73,2.03 z"
           inkscape:connector-curvature="0"
           style="fill:#000000;stroke-width:0" /><path
           id="path3794"
           d="m 635.72,416.96 -0.01,0.58 -0.04,0.58 -0.07,0.56 -0.09,0.55 -0.11,0.54 -0.14,0.53 -0.16,0.52 -0.19,0.51 -0.2,0.5 -0.23,0.48 -0.25,0.47 -0.27,0.45 -0.28,0.43 -0.31,0.43 -0.32,0.4 -0.34,0.39 -0.35,0.36 -0.38,0.35 -0.38,0.33 -0.4,0.31 -0.42,0.29 -0.43,0.27 -0.44,0.24 -0.45,0.22 -0.46,0.2 -0.48,0.17 -0.48,0.15 -0.49,0.13 -0.5,0.09 -0.51,0.07 -0.51,0.05 -0.53,0.01 c -5.57,0 -10.2,-4.94 -10.2,-11.16 0,-6.32 4.73,-11.06 10.2,-11.06 v 3.03 c -3.68,0 -6.76,3.75 -6.76,8.38 0,4.53 3.23,7.76 6.76,7.76 3.6,0 6.78,-3.23 6.78,-7.76 0,-4.63 -3.09,-8.38 -6.78,-8.38 h 0 v -3.03 c 5.49,0 10.22,4.78 10.22,11.06 z"
           inkscape:connector-curvature="0"
           style="fill:#000000;stroke-width:0" /><path
           id="path3796"
           d="m 646.88,425.32 0,0.15 0,0.14 0,0.14 0,0.13 -0.01,0.13 0,0.12 -0.01,0.12 -0.01,0.11 -0.02,0.11 -0.01,0.1 -0.02,0.1 -0.03,0.1 -0.02,0.09 -0.04,0.08 -0.04,0.08 -0.04,0.07 -0.05,0.07 -0.05,0.07 -0.07,0.06 -0.07,0.06 -0.07,0.05 -0.09,0.05 -0.04,0.02 -0.05,0.02 -0.05,0.02 -0.05,0.02 -0.05,0.01 -0.06,0.02 -0.05,0.01 -0.07,0.02 -0.06,0.01 -0.06,0.01 -0.07,0.01 -0.07,0.01 -0.07,0.01 -0.08,0.01 -0.08,0 -0.08,0.01 -0.08,0 -0.08,0.01 -0.09,0 -0.09,0 h -3.65 c -0.79,0 -2.04,0 -2.04,-1.55 0,-1.48 1.29,-1.48 2,-1.48 h 2.23 v -15.39 h -2.19 c -0.79,0 -2.04,0 -2.04,-1.55 0,-1.5 1.29,-1.5 2,-1.5 h 7.92 c 0.69,0 1.98,0 1.98,1.5 0,1.55 -1.23,1.55 -2.03,1.55 h -2.2 v 8.81 c 0,4.98 3.69,6.87 6.23,6.87 2.64,0 3.35,-1.39 3.35,-4.39 v -11.29 h -1.96 c -0.79,0 -2.04,0 -2.04,-1.55 0,-1.5 1.36,-1.5 2.04,-1.5 h 7.63 c 0.7,0 2,0 2,1.5 0,1.55 -1.25,1.55 -2.05,1.55 h -2.18 v 11.54 c 0,5.03 -2.55,7.17 -6.49,7.17 -3.34,0 -5.58,-1.68 -6.53,-2.64 z"
           inkscape:connector-curvature="0"
           style="fill:#000000;stroke-width:0" /><path
           id="path3798"
           d="M 675.83,424.64 H 684 c 0.75,0 1.99,0 1.99,1.48 0,1.55 -1.19,1.55 -1.99,1.55 h -8.17 v 4.09 c 0,0.94 0,2.03 -1.7,2.03 -1.73,0 -1.73,-1.03 -1.73,-2.03 v -4.09 h -4.35 c -0.8,0 -2.03,0 -2.03,-1.55 0,-1.48 1.23,-1.48 1.98,-1.48 h 4.4 v -12.16 c 0,-4.78 3.38,-6.58 7.01,-6.58 3.69,0 7.74,2.14 7.74,6.58 0,0.89 0,1.94 -1.75,1.94 -1.65,0 -1.69,-1.05 -1.69,-1.89 -0.06,-3.1 -2.89,-3.6 -4.05,-3.6 -3.83,0 -3.83,2.6 -3.83,3.85 z"
           inkscape:connector-curvature="0"
           style="fill:#000000;stroke-width:0" /><path
           id="path3800"
           d="m 701.99,415.46 0.01,0.44 0.02,0.44 0.05,0.44 0.06,0.44 0.07,0.43 0.1,0.43 0.11,0.42 0.13,0.42 0.15,0.41 0.16,0.41 0.19,0.39 0.2,0.39 0.21,0.38 0.24,0.36 0.25,0.36 0.27,0.34 0.29,0.32 0.3,0.32 0.33,0.29 0.34,0.28 0.36,0.27 0.37,0.24 0.4,0.23 0.41,0.2 0.43,0.19 0.45,0.16 0.47,0.14 0.48,0.12 0.5,0.09 0.52,0.07 0.54,0.04 0.56,0.01 c 0.04,-1.2 0.89,-2.18 2.14,-2.18 1.09,0 2.09,0.79 2.09,2.14 0,0.98 -0.59,3.07 -4.73,3.07 -2.55,0 -5.74,-0.89 -8.47,-4.03 v 1.71 c 0,1.53 -0.3,2.03 -2,2.03 h -5.47 c -0.75,0 -2,0 -2,-1.49 0,-1.54 1.2,-1.54 2,-1.54 h 4.03 v -15.39 h -4.03 c -0.75,0 -2,0 -2,-1.5 0,-1.55 1.2,-1.55 2,-1.55 h 13 c 0.75,0 2.05,0 2.05,1.5 0,1.55 -1.3,1.55 -2.05,1.55 h -5.53 z"
           inkscape:connector-curvature="0"
           style="fill:#000000;stroke-width:0" /><path
           id="path3802"
           d="m 740.35,416.96 -0.02,0.58 -0.04,0.58 -0.06,0.56 -0.09,0.55 -0.12,0.54 -0.14,0.53 -0.16,0.52 -0.18,0.51 -0.21,0.5 -0.23,0.48 -0.24,0.47 -0.27,0.45 -0.29,0.43 -0.3,0.43 -0.32,0.4 -0.34,0.39 -0.36,0.36 -0.37,0.35 -0.39,0.33 -0.4,0.31 -0.41,0.29 -0.43,0.27 -0.44,0.24 -0.45,0.22 -0.47,0.2 -0.47,0.17 -0.48,0.15 -0.5,0.13 -0.5,0.09 -0.5,0.07 -0.52,0.05 -0.52,0.01 c -5.58,0 -10.2,-4.94 -10.2,-11.16 0,-6.32 4.73,-11.06 10.2,-11.06 v 3.03 c -3.69,0 -6.77,3.75 -6.77,8.38 0,4.53 3.24,7.76 6.77,7.76 3.59,0 6.78,-3.23 6.78,-7.76 0,-4.63 -3.09,-8.38 -6.78,-8.38 h 0 v -3.03 c 5.48,0 10.22,4.78 10.22,11.06 z"
           inkscape:connector-curvature="0"
           style="fill:#000000;stroke-width:0" /><path
           id="path3804"
           d="m 758.03,434.59 0,0.14 0,0.14 0,0.13 -0.01,0.12 -0.01,0.12 -0.01,0.11 -0.02,0.11 -0.02,0.1 -0.02,0.1 -0.03,0.09 -0.03,0.09 -0.03,0.08 -0.04,0.07 -0.04,0.08 -0.05,0.06 -0.05,0.06 -0.05,0.06 -0.06,0.05 -0.07,0.05 -0.07,0.05 -0.08,0.04 -0.09,0.03 -0.09,0.04 -0.09,0.02 -0.11,0.03 -0.11,0.02 -0.12,0.02 -0.12,0.01 -0.13,0.01 -0.14,0.01 -0.07,0 -0.08,0.01 -0.08,0 -0.08,0 h -7.85 c -0.8,0 -2.05,0 -2.05,-1.55 0,-1.48 1.3,-1.48 1.98,-1.48 h 6.49 v -24.36 h -6.42 c -0.8,0 -2.05,0 -2.05,-1.55 0,-1.5 1.3,-1.5 1.98,-1.5 h 16.41 c 0.73,0 1.98,0 1.98,1.5 0,1.55 -1.18,1.55 -1.98,1.55 h -6.49 z"
           inkscape:connector-curvature="0"
           style="fill:#000000;stroke-width:0" /></g>    </g>
    <g
       transform="translate(249.50769,414.16254)"
       id="g5487">
      <g
         style="font-style:normal;font-variant:normal;font-weight:normal;font-stretch:normal;letter-spacing:normal;word-spacing:normal;text-anchor:start;fill:none;stroke:#000000;stroke-linecap:butt;stroke-linejoin:miter;stroke-miterlimit:10.43299961;stroke-opacity:1;stroke-dasharray:none;stroke-dashoffset:0"
         id="g5489"
         transform="matrix(0.85714286,0,0,-0.85714286,-150,600)"
         xml:space="preserve"
         stroke-miterlimit="10.433"
         font-style="normal"
         font-variant="normal"
         font-weight="normal"
         font-stretch="normal"
         font-size-adjust="none"
         letter-spacing="normal"
         word-spacing="normal"><path
           style="fill:#000000;stroke-width:0"
           inkscape:connector-curvature="0"
           d="m 471.27,435.29 -0.02,0.09 -0.02,0.08 -0.03,0.09 -0.02,0.08 -0.02,0.07 -0.02,0.08 -0.03,0.07 -0.02,0.07 -0.05,0.13 -0.06,0.12 -0.05,0.12 -0.06,0.1 -0.06,0.1 -0.06,0.09 -0.06,0.08 -0.07,0.08 -0.07,0.06 -0.07,0.07 -0.07,0.05 -0.08,0.05 -0.08,0.04 -0.09,0.04 -0.09,0.04 -0.09,0.03 -0.09,0.02 -0.1,0.02 -0.11,0.02 -0.1,0.01 -0.11,0.01 -0.12,0.01 -0.12,0.01 -0.12,0 -0.13,0.01 -0.13,0 -0.14,0 -0.14,0 c -1.44,0 -2.24,0 -2.69,-1.89 l -6.03,-26.09 c -0.69,0 -1.85,0 -2.14,-0.11 -0.55,-0.3 -0.85,-0.8 -0.85,-1.44 0,-1.5 1.3,-1.5 2.14,-1.5 h 5.08 c 0.91,0 2.1,0 2.1,1.5 0,1.55 -0.99,1.55 -2.79,1.55 l 1.15,5.17 0.75,3.04 3.28,15.74 h 0.06 l 3.23,-15.74 h -6.57 l -0.75,-3.04 h 8.07 l 1.14,-5.17 c -1.79,0 -2.79,0 -2.79,-1.55 0,-1.5 1.2,-1.5 2.09,-1.5 h 5.09 c 0.85,0 2.15,0 2.15,1.5 0,0.64 -0.25,1.14 -0.85,1.39 -0.31,0.16 -1.4,0.16 -2.15,0.16 z"
           id="path5491" /><path
           style="fill:#000000;stroke-width:0"
           inkscape:connector-curvature="0"
           d="m 484.66,436.64 -0.08,0 -0.07,0 -0.08,0 -0.09,-0.01 -0.16,0 -0.09,-0.01 -0.08,-0.01 -0.09,-0.01 -0.08,-0.01 -0.09,-0.02 -0.08,-0.01 -0.09,-0.03 -0.08,-0.02 -0.08,-0.03 -0.07,-0.04 -0.08,-0.03 -0.07,-0.05 -0.07,-0.05 -0.07,-0.05 -0.06,-0.06 -0.06,-0.07 -0.03,-0.03 -0.03,-0.04 -0.02,-0.04 -0.03,-0.04 -0.02,-0.04 -0.02,-0.04 -0.02,-0.05 -0.02,-0.04 -0.02,-0.05 -0.02,-0.05 -0.01,-0.05 -0.02,-0.06 -0.01,-0.06 -0.01,-0.05 -0.01,-0.07 -0.01,-0.06 0,-0.06 -0.01,-0.07 0,-0.07 0,-0.07 c 0,-1.48 1.28,-1.48 2.03,-1.48 h 1.09 v -24.36 h -1.09 c -0.8,0 -2.03,0 -2.03,-1.55 0,-1.5 1.28,-1.5 2.03,-1.5 h 10.27 c 6.53,0 10.9,6.97 10.9,15 0,7.97 -4.28,15.44 -10.9,15.44 l -0.94,-3.03 c 5.62,0 8.4,-6.63 8.4,-12.41 0,-5.83 -2.87,-11.95 -8.4,-11.95 h -4.8 v 24.36 h 4.8 l 0.94,3.03 z"
           id="path5493" /><path
           style="fill:#000000;stroke-width:0"
           inkscape:connector-curvature="0"
           d="m 517.3,434.84 -0.06,0.15 -0.05,0.14 -0.06,0.14 -0.06,0.12 -0.06,0.12 -0.06,0.11 -0.07,0.1 -0.06,0.1 -0.07,0.09 -0.06,0.08 -0.07,0.08 -0.08,0.07 -0.07,0.06 -0.07,0.06 -0.08,0.05 -0.08,0.05 -0.08,0.04 -0.09,0.04 -0.08,0.04 -0.09,0.03 -0.09,0.02 -0.1,0.02 -0.09,0.02 -0.1,0.02 -0.11,0.01 -0.1,0.01 -0.11,0.01 -0.11,0.01 -0.11,0 -0.12,0.01 -0.12,0 -0.13,0 h -3.39 c -0.75,0 -2,0 -2,-1.49 0,-1.54 1.21,-1.54 2,-1.54 h 1.25 v -24.36 h -1.25 c -0.75,0 -2,0 -2,-1.5 0,-1.55 1.21,-1.55 2,-1.55 h 5.28 c 0.75,0 1.99,0 1.99,1.5 0,1.55 -1.19,1.55 -1.99,1.55 h -1.25 v 23.65 h 0.05 l 9.17,-24.9 c 0.64,-1.75 1.44,-1.8 2.74,-1.8 1.5,0 2.09,0.16 2.09,2.05 v 25.36 h 1.25 c 0.75,0 2,0 2,1.48 0,1.55 -1.2,1.55 -2,1.55 h -5.28 c -0.8,0 -2,0 -2,-1.55 0,-1.48 1.25,-1.48 2,-1.48 h 1.25 v -23.68 h -0.05 z"
           id="path5495" /><path
           style="fill:#000000;stroke-width:0"
           inkscape:connector-curvature="0"
           d="m 548.78,433.61 h 5.38 c 0.75,0 2.05,0 2.05,1.48 0,1.55 -1.3,1.55 -2.05,1.55 h -14.19 c -0.75,0 -2.04,0 -2.04,-1.49 0,-1.54 1.29,-1.54 2.04,-1.54 h 5.38 v -24.36 h -5.38 c -0.75,0 -2.04,0 -2.04,-1.5 0,-1.55 1.29,-1.55 2.04,-1.55 h 14.19 c 0.75,0 2.05,0 2.05,1.5 0,1.55 -1.3,1.55 -2.05,1.55 h -5.38 z"
           id="path5497" /><path
           style="fill:#000000;stroke-width:0"
           inkscape:connector-curvature="0"
           d="m 581.11,419.7 0.06,0 0.07,0 0.07,0 0.08,0 0.08,0.01 0.09,0 0.08,0.01 0.1,0.01 0.09,0.01 0.1,0.01 0.09,0.02 0.1,0.02 0.1,0.03 0.1,0.03 0.1,0.03 0.09,0.04 0.1,0.04 0.09,0.05 0.09,0.06 0.09,0.06 0.08,0.06 0.08,0.08 0.03,0.04 0.04,0.04 0.03,0.04 0.04,0.05 0.03,0.04 0.03,0.05 0.03,0.05 0.02,0.06 0.03,0.05 0.02,0.06 0.02,0.06 0.02,0.06 0.02,0.07 0.01,0.06 0.02,0.07 0.01,0.07 0.01,0.07 0,0.08 0.01,0.08 0,0.08 c 0,1.73 -1.74,1.73 -2.35,1.73 h -15.84 c -0.59,0 -2.33,0 -2.33,-1.73 0,-1.75 1.74,-1.75 2.33,-1.75 z"
           id="path5499" /><path
           style="fill:#000000;stroke-width:0"
           inkscape:connector-curvature="0"
           d="m 600.75,424.59 -0.11,-0.33 -0.11,-0.33 -0.1,-0.32 -0.1,-0.31 -0.1,-0.3 -0.09,-0.3 -0.09,-0.3 -0.09,-0.29 -0.08,-0.28 -0.07,-0.29 -0.08,-0.28 -0.07,-0.27 -0.07,-0.28 -0.06,-0.27 -0.12,-0.54 h -0.06 c -0.49,2.35 -4.88,15.25 -4.97,15.55 -0.5,1.19 -1.75,1.19 -2.45,1.19 h -2.78 c -0.75,0 -2,0 -2,-1.49 0,-1.54 1.04,-1.54 2.63,-1.54 v -24.36 c -1.59,0 -2.63,0 -2.63,-1.55 0,-1.5 1.25,-1.5 2,-1.5 h 4.07 c 0.75,0 2,0 2,1.5 0,1.55 -1.04,1.55 -2.64,1.55 V 433 h 0.05 c 0.55,-2.29 3.73,-11.85 3.94,-12.5 0.39,-1.14 1.04,-3.04 1.29,-3.39 0.3,-0.4 0.89,-0.75 1.49,-0.75 0.65,0 1.34,0.4 1.75,1.1 0.15,0.3 4.39,12.9 4.98,15.54 h 0.05 v -23.75 c -1.6,0 -2.64,0 -2.64,-1.55 0,-1.5 1.25,-1.5 2,-1.5 h 4.08 c 0.75,0 2,0 2,1.5 0,1.55 -1.05,1.55 -2.64,1.55 v 24.36 c 1.59,0 2.64,0 2.64,1.54 0,1.49 -1.25,1.49 -2,1.49 h -2.79 c -2.04,0 -2.25,-0.69 -2.7,-1.99 z"
           id="path5501" /><path
           style="fill:#000000;stroke-width:0"
           inkscape:connector-curvature="0"
           d="m 636.57,435.15 0,0.08 0,0.08 -0.01,0.08 0,0.08 0,0.17 -0.01,0.08 -0.01,0.09 -0.01,0.08 -0.01,0.09 -0.01,0.08 -0.02,0.09 -0.02,0.08 -0.03,0.08 -0.03,0.08 -0.03,0.08 -0.04,0.07 -0.04,0.07 -0.04,0.07 -0.06,0.07 -0.05,0.06 -0.07,0.06 -0.03,0.03 -0.04,0.03 -0.03,0.02 -0.04,0.03 -0.04,0.02 -0.04,0.02 -0.04,0.03 -0.05,0.01 -0.05,0.02 -0.05,0.02 -0.05,0.02 -0.05,0.01 -0.05,0.01 -0.06,0.01 -0.06,0.01 -0.06,0.01 -0.06,0.01 -0.06,0 -0.07,0 -0.07,0 c -0.9,0 -1.15,-0.5 -1.4,-0.84 -0.1,-0.2 -0.1,-0.3 -0.74,-1.55 -1.66,1.41 -3.94,2.39 -6.48,2.39 -6.43,0 -12,-6.67 -12,-15.73 0,-9.13 5.57,-15.8 12.04,-15.8 5.78,0 10.07,4.44 10.07,8.92 0,1.64 -1.19,1.64 -1.74,1.64 -0.45,0 -1.59,0 -1.7,-1.45 -0.35,-4.87 -4.38,-6.08 -6.42,-6.08 -4.53,0 -8.81,5.28 -8.81,12.77 0,7.42 4.32,12.7 8.76,12.7 2.99,0 5.72,-2.29 6.42,-6.33 0.16,-0.84 0.25,-1.64 1.75,-1.64 1.74,0 1.74,1.05 1.74,2.03 z"
           id="path5503" /><path
           style="fill:#000000;stroke-width:0"
           inkscape:connector-curvature="0"
           d="m 653.41,433.61 h 5.37 c 0.75,0 2.05,0 2.05,1.48 0,1.55 -1.3,1.55 -2.05,1.55 H 644.6 c -0.75,0 -2.05,0 -2.05,-1.49 0,-1.54 1.3,-1.54 2.05,-1.54 h 5.37 v -24.36 h -5.37 c -0.75,0 -2.05,0 -2.05,-1.5 0,-1.55 1.3,-1.55 2.05,-1.55 h 14.18 c 0.75,0 2.05,0 2.05,1.5 0,1.55 -1.3,1.55 -2.05,1.55 h -5.37 z"
           id="path5505" /><path
           style="fill:#000000;stroke-width:0"
           inkscape:connector-curvature="0"
           d="m 687.58,437.84 0.02,0.04 0.01,0.03 0.02,0.04 0.02,0.03 0.01,0.03 0.01,0.03 0.02,0.03 0.01,0.03 0.02,0.03 0.01,0.03 0.01,0.03 0.01,0.02 0.03,0.05 0.02,0.05 0.02,0.04 0.02,0.04 0.01,0.04 0.02,0.03 0.01,0.04 0.02,0.03 0.01,0.03 0.01,0.03 0.01,0.02 0.01,0.03 0.01,0.03 0,0.02 0.02,0.05 0.01,0.05 0,0.02 0,0.03 0,0.03 0.01,0.03 0,0.03 0,0.03 0,0.03 0,0.04 c 0,0.9 -0.75,1.75 -1.75,1.75 -1.09,0 -1.44,-0.75 -1.74,-1.39 L 668.05,405 c -0.34,-0.8 -0.39,-0.8 -0.39,-1.19 0,-0.89 0.75,-1.75 1.75,-1.75 1.09,0 1.44,0.75 1.74,1.4 z"
           id="path5507" /><path
           style="fill:#000000;stroke-width:0"
           inkscape:connector-curvature="0"
           d="m 706.68,435.29 -0.03,0.09 -0.02,0.08 -0.02,0.09 -0.02,0.08 -0.03,0.07 -0.02,0.08 -0.02,0.07 -0.03,0.07 -0.05,0.13 -0.05,0.12 -0.05,0.12 -0.06,0.1 -0.06,0.1 -0.06,0.09 -0.06,0.08 -0.07,0.08 -0.07,0.06 -0.07,0.07 -0.08,0.05 -0.08,0.05 -0.08,0.04 -0.08,0.04 -0.09,0.04 -0.09,0.03 -0.1,0.02 -0.1,0.02 -0.1,0.02 -0.11,0.01 -0.11,0.01 -0.11,0.01 -0.12,0.01 -0.13,0 -0.12,0.01 -0.14,0 -0.13,0 -0.15,0 c -1.44,0 -2.23,0 -2.69,-1.89 l -6.03,-26.09 c -0.68,0 -1.84,0 -2.14,-0.11 -0.54,-0.3 -0.84,-0.8 -0.84,-1.44 0,-1.5 1.3,-1.5 2.14,-1.5 h 5.08 c 0.91,0 2.09,0 2.09,1.5 0,1.55 -0.98,1.55 -2.78,1.55 l 1.14,5.17 0.75,3.04 3.28,15.74 h 0.06 l 3.24,-15.74 h -6.58 l -0.75,-3.04 h 8.08 l 1.14,-5.17 c -1.8,0 -2.8,0 -2.8,-1.55 0,-1.5 1.21,-1.5 2.1,-1.5 h 5.09 c 0.85,0 2.14,0 2.14,1.5 0,0.64 -0.25,1.14 -0.84,1.39 -0.32,0.16 -1.41,0.16 -2.16,0.16 z"
           id="path5509" /><path
           style="fill:#000000;stroke-width:0"
           inkscape:connector-curvature="0"
           d="m 720.07,436.64 -0.08,0 -0.08,0 -0.08,0 -0.08,-0.01 -0.17,0 -0.08,-0.01 -0.09,-0.01 -0.08,-0.01 -0.09,-0.01 -0.08,-0.02 -0.09,-0.01 -0.08,-0.03 -0.08,-0.02 -0.08,-0.03 -0.08,-0.04 -0.07,-0.03 -0.08,-0.05 -0.07,-0.05 -0.06,-0.05 -0.07,-0.06 -0.05,-0.07 -0.03,-0.03 -0.03,-0.04 -0.02,-0.04 -0.03,-0.04 -0.02,-0.04 -0.03,-0.04 -0.02,-0.05 -0.02,-0.04 -0.01,-0.05 -0.02,-0.05 -0.02,-0.05 -0.01,-0.06 -0.01,-0.06 -0.01,-0.05 -0.01,-0.07 -0.01,-0.06 -0.01,-0.06 0,-0.07 0,-0.07 -0.01,-0.07 c 0,-1.48 1.29,-1.48 2.04,-1.48 h 1.09 v -24.36 h -1.09 c -0.8,0 -2.04,0 -2.04,-1.55 0,-1.5 1.29,-1.5 2.04,-1.5 h 10.26 c 6.53,0 10.91,6.97 10.91,15 0,7.97 -4.28,15.44 -10.91,15.44 l -0.93,-3.03 c 5.62,0 8.4,-6.63 8.4,-12.41 0,-5.83 -2.87,-11.95 -8.4,-11.95 h -4.8 v 24.36 h 4.8 l 0.93,3.03 z"
           id="path5511" /></g>    </g>
    <g
       id="g6137"
       transform="matrix(1.3699299,0,0,1.3699299,20.372198,464.35321)">
      <g
         word-spacing="normal"
         letter-spacing="normal"
         font-size-adjust="none"
         font-stretch="normal"
         font-weight="normal"
         font-variant="normal"
         font-style="normal"
         stroke-miterlimit="10.433"
         xml:space="preserve"
         transform="matrix(0.85714286,0,0,-0.85714286,-150,600)"
         id="g6139"
         style="font-style:normal;font-variant:normal;font-weight:normal;font-stretch:normal;letter-spacing:normal;word-spacing:normal;text-anchor:start;fill:none;stroke:#000000;stroke-linecap:butt;stroke-linejoin:miter;stroke-miterlimit:10.43299961;stroke-opacity:1;stroke-dasharray:none;stroke-dashoffset:0"><path
           id="path6141"
           d="m 463.99,397.73 -0.01,-0.03 -0.01,-0.03 -0.01,-0.03 -0.01,-0.03 -0.01,-0.02 -0.01,-0.03 -0.01,-0.05 -0.02,-0.05 -0.01,-0.04 -0.01,-0.05 -0.02,-0.04 -0.01,-0.04 -0.01,-0.03 -0.01,-0.04 -0.01,-0.03 -0.01,-0.03 -0.01,-0.03 -0.01,-0.03 0,-0.02 -0.01,-0.03 -0.01,-0.02 0,-0.02 -0.01,-0.03 0,-0.02 0,-0.02 -0.01,-0.04 -0.01,-0.04 0,-0.04 0,-0.04 0,-0.03 0,-0.02 c 0,-1.09 0.95,-1.39 1.45,-1.39 0.25,0 1.35,0.14 1.85,1.3 0.14,0.39 0.39,2.04 1.73,9.11 0.45,-0.05 0.8,-0.1 1.64,-0.1 8.28,0 15.95,7.83 15.95,15.69 l -1.4,-1.09 c 0,-5.63 -6.42,-11.71 -14.1,-11.71 h 0 c -0.39,0 -0.5,0 -0.89,0.05 -0.61,0 -0.65,0.05 -0.65,0.2 0,0.1 0.84,4.63 1,5.38 1.54,6.37 5.43,11.15 9.86,11.15 3.43,0 4.78,-2.68 4.78,-5.07 l 1.4,1.09 c 0,3.89 -1.95,6.87 -5.68,6.87 -7.22,0 -10.21,-9.65 -13.21,-19.37 -5.37,1 -8.17,3.78 -8.17,7.37 0,1.4 1.16,6.88 4.14,10.32 0.39,0.45 0.39,0.54 0.39,0.64 0,0.2 -0.09,0.5 -0.59,0.5 -1.39,0 -5.24,-7.22 -5.24,-12 0,-4.69 3.3,-8.33 8.63,-9.56 z"
           inkscape:connector-curvature="0"
           style="fill:#000000;stroke-width:0" /><path
           id="path6143"
           d="m 498.72,417.75 h 3.63 c 0.51,0 1.53,0 1.53,1.15 0,1.16 -1.05,1.16 -1.53,1.16 h -9.91 c -0.51,0 -1.53,0 -1.53,-1.16 0,-1.15 1.05,-1.15 1.53,-1.15 h 3.63 v -16.69 h -3.63 c -0.51,0 -1.53,0 -1.53,-1.14 0,-1.16 1.05,-1.16 1.53,-1.16 h 9.91 c 0.51,0 1.53,0 1.53,1.16 0,1.14 -1.05,1.14 -1.53,1.14 h -3.63 z"
           inkscape:connector-curvature="0"
           style="fill:#000000;stroke-width:0" /><path
           id="path6145"
           d="m 516.98,410.12 3.87,7.63 h 0.66 c 0.53,0 1.53,0 1.53,1.15 0,1.16 -1.04,1.16 -1.53,1.16 h -3.62 c -0.49,0 -1.54,0 -1.54,-1.16 0,-1.15 1.02,-1.15 1.58,-1.15 l -2.23,-4.6 -2.44,4.6 c 0.41,0 1.46,0 1.46,1.15 0,1.16 -1.05,1.16 -1.54,1.16 h -3.62 c -0.52,0 -1.53,0 -1.53,-1.16 0,-1.15 1.04,-1.15 1.53,-1.15 h 0.7 l 4.08,-7.63 -4.5,-9.06 h -0.69 c -0.53,0 -1.5,0 -1.5,-1.14 0,-1.16 0.97,-1.16 1.5,-1.16 h 3.61 c 0.53,0 1.55,0 1.55,1.16 0,1.14 -1.02,1.14 -1.58,1.14 l 2.97,6.34 3.2,-6.34 c -0.48,0 -1.53,0 -1.53,-1.14 0,-1.16 1.05,-1.16 1.53,-1.16 h 3.63 c 0.51,0 1.53,0 1.53,1.16 0,1.14 -1.05,1.14 -1.53,1.14 h -0.71 z"
           inkscape:connector-curvature="0"
           style="fill:#000000;stroke-width:0" /><path
           id="path6147"
           d="m 535.68,417.75 h 3.62 c 0.52,0 1.53,0 1.53,1.15 0,1.16 -1.05,1.16 -1.53,1.16 h -9.9 c -0.52,0 -1.54,0 -1.54,-1.16 0,-1.15 1.05,-1.15 1.54,-1.15 h 3.62 v -16.69 h -3.62 c -0.52,0 -1.54,0 -1.54,-1.14 0,-1.16 1.05,-1.16 1.54,-1.16 h 9.9 c 0.52,0 1.53,0 1.53,1.16 0,1.14 -1.05,1.14 -1.53,1.14 h -3.62 z"
           inkscape:connector-curvature="0"
           style="fill:#000000;stroke-width:0" /></g>    </g>
  </g>
</svg>
